<svg xmlns="http://www.w3.org/2000/svg" viewBox="0 0 1200 630"><rect x="0" y="0" width="1200" height="630" fill="#fefef9" class="s-aLjgK_Wml4nF"></rect>
	<path fill="#999999" d="M 951.3848 0 L 782.57617 630 L 834.33789 630 L 1003.1504 0 L 951.3848 0 z" class="s-aLjgK_Wml4nF"></path>
	<path fill="#999999" d="M 1029.6543 0 L 860.8418 630 L 943.66406 630 L 1112.4746 0 L 1029.6543 0 z" class="s-aLjgK_Wml4nF"></path>
	<g transform="translate(110, 130)" class="s-aLjgK_Wml4nF"><text fill="#808080" font-size="28" class="s-aLjgK_Wml4nF">Handle name</text><text y="140" font-size="128" font-weight="bold" class="s-aLjgK_Wml4nF">ssssota</text></g>
	<g transform="translate(860,550)" class="s-aLjgK_Wml4nF"><text y="30" font-size="20" class="s-aLjgK_Wml4nF">made with</text><g transform="scale(5) translate(20.5,0)" stroke-width=".11583"><path d="m15.974 4.5419q0-0.26494-0.12932-0.4076-0.12638-0.14557-0.3615-0.14557-0.23218 0-0.35856 0.13975-0.12344 0.13684-0.12344 0.39013l-0.14989-0.69875q0.14401-0.28823 0.37326-0.44254 0.23218-0.15722 0.51433-0.15722 0.32917 0 0.56136 0.15431 0.23512 0.15431 0.35562 0.45128 0.12344 0.29697 0.12344 0.71331v1.7469h-0.8053zm-3.5562-1.2781h0.8053v3.0221h-0.8053zm1.7781 1.2781q0-0.26494-0.13226-0.4076-0.13226-0.14557-0.37326-0.14557-0.22337 0-0.34681 0.12519-0.1205 0.12228-0.1205 0.34646l-0.06172-0.66963q0.1352-0.2795 0.33799-0.42507 0.20279-0.14557 0.47612-0.14557 0.32329 0 0.55254 0.15431 0.23218 0.15431 0.35269 0.45128 0.1205 0.29697 0.1205 0.71331v1.7469h-0.8053z"></path><path d="m18.886 6.3296q-0.44086 0-0.75533-0.15722-0.31154-0.16013-0.47612-0.46292-0.16459-0.3057-0.16459-0.73369v-0.34064q0-0.44836 0.15577-0.76571 0.15871-0.31735 0.45849-0.4833 0.30272-0.16595 0.72888-0.16595 0.39971 0 0.6848 0.19798 0.28509 0.19798 0.43204 0.57647 0.14989 0.37558 0.14989 0.90837v0.19798h-2.0867v-0.53862h1.352l-0.0088-0.069875q-0.032346-0.26203-0.16754-0.40469-0.13226-0.14266-0.35562-0.14266-0.29096 0-0.45261 0.17178-0.15871 0.17178-0.15871 0.48621v0.38431q0 0.30861 0.1734 0.47748 0.17634 0.16886 0.49082 0.16886 0.16165 0 0.32036-0.055318 0.15871-0.058229 0.28803-0.16304l0.52609 0.46292q-0.23806 0.21545-0.53491 0.33482-0.29684 0.11646-0.59956 0.11646z"></path><path d="m22.904 4.3847v0.76862h-2.0926v-0.76862z"></path><path d="m24.87 6.3296q-0.27333 0-0.53197-0.046583-0.25864-0.049495-0.48494-0.14266-0.22631-0.093166-0.39971-0.22418l0.4967-0.61432q0.22043 0.13975 0.46143 0.21545 0.241 0.075698 0.45849 0.075698 0.28215 0 0.43792-0.061141 0.15577-0.064052 0.15577-0.17469 0-0.1019-0.0676-0.15431-0.0676-0.052406-0.1734-0.072786-0.10581-0.023292-0.29684-0.04076-0.0529-0.00582-0.10874-0.011646-0.0529-0.00582-0.10874-0.011646-0.01176-0.00292-0.02645-0.00292-0.01176-0.00292-0.02351-0.00292-0.34093-0.043664-0.54666-0.10772t-0.34975-0.24456q-0.14107-0.18342-0.14107-0.52988 0-0.30279 0.14695-0.51824 0.14695-0.21545 0.42616-0.32608 0.27921-0.11355 0.67598-0.11355 0.23218 0 0.46143 0.046583 0.23218 0.046584 0.4438 0.13393 0.21161 0.087343 0.39089 0.20962l-0.47906 0.57938q-0.19985-0.11063-0.41734-0.17177-0.21749-0.061141-0.41734-0.061141-0.24394 0-0.37914 0.055318t-0.1352 0.15431q0 0.075698 0.07054 0.11937 0.07348 0.04076 0.17928 0.061141 0.10874 0.017468 0.31448 0.04076 0.02645 0.00292 0.0529 0.00582 0.02645 0.00292 0.0529 0.00582 0.01175 0.00292 0.02645 0.00292t0.02645 0.00292q0.35562 0.04076 0.57899 0.10481 0.22337 0.064052 0.37914 0.25621 0.15871 0.19216 0.15871 0.56482 0 0.31444-0.15283 0.53862-0.15283 0.22418-0.44673 0.34355-0.2939 0.11646-0.70831 0.11646z"></path><path d="m26.831 2.0526h0.8053v4.2333h-0.8053zm1.7634 2.4019q0-0.22127-0.12932-0.34355-0.12638-0.12228-0.3615-0.12228-0.22337 0-0.34681 0.12519-0.1205 0.12228-0.1205 0.34646l-0.06172-0.66963q0.13813-0.28532 0.32917-0.42798 0.19398-0.14266 0.48494-0.14266 0.482 0 0.74652 0.32317 0.26451 0.32026 0.26451 0.90837v1.8342h-0.8053z"></path><path d="m30.149 2.0526h0.8053v0.79774h-0.8053zm0 1.2112h0.8053v3.0221h-0.8053z"></path><path d="m 7.7244523,1.4237183 -5.532828,1.3146024 0.085781,0.3591364 -0.1426227,0.2366718 2.6188867,1.5719562 5.6169627,-1.531132 -0.12402,-0.4516324 0.0832,-0.1617437 z M 7.6521073,2.0195451 9.3269043,2.8809804 4.8653463,4.0974249 3.1760772,3.0840695 Z M 10.171777,4.1408154 4.8651613,5.5877326 2.5211704,4.1795759 2.1346503,4.8239525 4.7535363,6.3964383 10.3705,4.8632422 Z m 0,1.4882441 L 4.8651613,7.0759763 2.5211704,5.6698837 2.1346503,6.3121963 4.7535363,7.8846823 10.3705,6.3535503 Z"></path></g></g>
	<g transform="translate(110,360) scale(1.8)"><svg width="12mm" height="12mm" version="1.1" viewBox="0 0 12 12" xmlns="http://www.w3.org/2000/svg"><path d="m10.479 3.9387c0.0069 0.099314 0.0069 0.19863 0.0069 0.29887 0 3.0542-2.325 6.5762-6.5762 6.5762v-0.0018c-1.2558 0.0018-2.4856-0.35791-3.5429-1.0362 0.18261 0.02197 0.36613 0.03295 0.55012 0.03341 1.0408 9.25e-4 2.0517-0.34828 2.8705-0.99132-0.98903-0.01876-1.8563-0.66363-2.1593-1.605 0.34646 0.06682 0.70344 0.05309 1.0435-0.03982-1.0783-0.21787-1.854-1.1653-1.854-2.2655v-0.029291c0.32129 0.17895 0.68102 0.27827 1.049 0.28924-1.0156-0.67873-1.3286-2.0298-0.71533-3.086 1.1735 1.4439 2.9049 2.3218 4.7633 2.4147-0.18627-0.80275 0.068192-1.644 0.66867-2.2082 0.93091-0.87508 2.395-0.83021 3.2701 0.10023 0.51763-0.10206 1.0137-0.29198 1.4677-0.56111-0.17254 0.53502-0.53366 0.98949-1.016 1.2783 0.45812-0.054005 0.90574-0.17666 1.3272-0.36384-0.3103 0.46498-0.70116 0.87004-1.1533 1.1973z"></path><style>text.s-aLjgK_Wml4nF{font-family:'Noto Sans JP', Meiryo, Arial, Helvetica, sans-serif}.s-aLjgK_Wml4nF{}</style></svg><a href="https://twitter.com/ssssotaro" target="_blank"><text x="70" y="35" font-size="32">ssssotaro</text></a></g>
	<g transform="translate(110,460) scale(1.8)"><svg width="12mm" height="12mm" version="1.1" viewBox="0 0 12 12" xmlns="http://www.w3.org/2000/svg"><path d="m5.9995 0.39529c-3.1729 0-5.746 2.5728-5.746 5.7468 0 2.5386 1.6464 4.6926 3.9299 5.4529 0.28751 0.05256 0.39229-0.12488 0.39229-0.27728 0-0.13652-0.0049-0.49777-0.0078-0.97719-1.5984 0.34713-1.9357-0.77047-1.9357-0.77047-0.26141-0.66393-0.63818-0.84067-0.63818-0.84067-0.52176-0.3563 0.03951-0.34925 0.03951-0.34925 0.57679 0.04057 0.88018 0.59231 0.88018 0.59231 0.51259 0.87806 1.3451 0.62442 1.6725 0.47731 0.05221-0.37112 0.20073-0.62442 0.36477-0.768-1.276-0.14534-2.6176-0.63818-2.6176-2.8402 0-0.62759 0.22401-1.1402 0.59161-1.542-0.05927-0.14534-0.25647-0.72954 0.05644-1.5208 0 0 0.48225-0.15452 1.5801 0.58879 0.45826-0.12735 0.95003-0.19085 1.4386-0.19332 0.48824 0.0025 0.97966 0.06597 1.4386 0.19332 1.0971-0.7433 1.5787-0.58879 1.5787-0.58879 0.31362 0.79128 0.11642 1.3755 0.0575 1.5208 0.3683 0.40181 0.59055 0.9144 0.59055 1.542 0 2.2077-1.3437 2.6935-2.6236 2.8356 0.20602 0.17745 0.38982 0.52811 0.38982 1.0643 0 0.768-0.0071 1.3878-0.0071 1.5762 0 0.15381 0.10372 0.33267 0.39511 0.27658 2.2818-0.76165 3.9268-2.9139 3.9268-5.4522 0-3.1739-2.5732-5.7468-5.7471-5.7468" fill="#1b1817" fill-rule="evenodd"></path></svg><a href="https://github.com/ssssota" target="_blank"><text x="70" y="35" font-size="32">ssssota</text></a></g></svg>
